<svg xmlns="http://www.w3.org/2000/svg" viewBox="0 0 500 355">
	<!-- Traced from the Elgato streamdeck-kit-ipad simulator bezel, registered to the panel by its key holes -->
	<rect id="face" x="0" y="0" width="500" height="355" fill="none"/>

	<!-- Drawn in the pixels of the reference image, which is 1303 wide -->
	<g transform="scale(0.38373)">
		<path d="M200 0H1103C1231 0 1303 72 1303 200V870Q1303 921 1252 921H1040V896H262V921H51Q0 921 0 870V200C0 72 72 0 200 0Z" fill="#262626"/>

		<!-- The three pedals, and the gaps between them -->
		<path d="M30 870V230Q30 120 140 120H300L268 870Z" fill="#202020"/>
		<path d="M1273 870V230Q1273 120 1163 120H1003L1035 870Z" fill="#202020"/>
		<path d="M326 8H977L1030 890H273Z" fill="#202020"/>
		<path d="M322 8L270 895M981 8L1033 895" stroke="#111" stroke-width="12"/>
		<rect x="545" y="3" width="215" height="24" rx="6" fill="#151515"/>

		<!-- Rubber treads -->
		<path d="M50 850V230Q50 140 140 140H265L220 850Z" fill="#181818"/>
		<path d="M1253 850V230Q1253 140 1163 140H1038L1083 850Z" fill="#181818"/>
		<path d="M330 88H975L1015 850H288Z" fill="#181818"/>

		<!-- Logo, moulded into the middle pedal -->
		<path transform="translate(-123.212 327) scale(3.269)" d="M233.6 0L238.2 0C251.1 0.7 263.6 6.1 272.7 15.3C278.7 21.2 282.9 28.6 285.7 36.5C282.6 38.3 279.5 40.1 276.4 42C273.6 31.5 266.9 22.1 257.5 16.5C248.2 10.8 236.5 8.9 225.8 11.7C214.1 14.5 203.8 22.8 198.6 33.7C193 44.8 192.9 58.5 198.2 69.7C202.9 79.9 211.9 87.9 222.5 91.5C233.6 95.3 246.2 94.2 256.3 88.3C265.4 83.3 272.2 74.7 275.6 65C258.8 55.4 241.9 45.7 225.1 36.1C225.1 46.5 225.1 56.9 225.1 67.3C230.8 64 236.6 60.7 242.3 57.3C245.3 59 248.4 60.7 251.4 62.4C242.7 67.5 234 72.5 225.2 77.5C222.2 75.7 219.1 74 216 72.2C216.2 58.5 216.1 44.9 216.1 31.2C219.1 29.4 222.2 27.7 225.2 25.9C245.9 37.7 266.5 49.5 287.1 61.3C284.7 74.4 277.1 86.5 266.3 94.3C258.4 100 249 103.3 239.3 104L232.8 104C223.6 103.5 214.5 100.4 206.8 95.2C194.5 86.9 185.9 73 184.3 58.1C182.3 43 187.6 27.2 198.2 16.2C207.3 6.5 220.3 0.7 233.6 0Z" fill="#0e0e0e"/>
	</g>
</svg>
